<?xml version="1.0" encoding="UTF-8" standalone="no"?>
<!DOCTYPE svg PUBLIC "-//W3C//DTD SVG 1.1//EN"
 "http://www.w3.org/Graphics/SVG/1.1/DTD/svg11.dtd">
<!-- Generated by graphviz version 2.47.3 (20210619.1520)
 -->
<!-- Title: dependencies Pages: 1 -->
<svg width="3113pt" height="247pt"
 viewBox="0.00 0.00 3113.00 246.80" xmlns="http://www.w3.org/2000/svg" xmlns:xlink="http://www.w3.org/1999/xlink">
<g id="graph0" class="graph" transform="scale(1 1) rotate(0) translate(4 242.8)">
<title>dependencies</title>
<polygon fill="white" stroke="transparent" points="-4,4 -4,-242.8 3109,-242.8 3109,4 -4,4"/>
<text text-anchor="middle" x="1552.5" y="-8.2" font-family="sans-serif" font-size="14.00">dependencies</text>
<g id="clust1" class="cluster">
<title>cluster_AppModule</title>
<polygon fill="none" stroke="black" stroke-dasharray="1,5" points="8,-32.8 8,-230.8 3097,-230.8 3097,-32.8 8,-32.8"/>
</g>
<g id="clust2" class="cluster">
<title>cluster_AppModule_declarations</title>
<polygon fill="none" stroke="black" points="532,-40.8 532,-92.8 3089,-92.8 3089,-40.8 532,-40.8"/>
</g>
<g id="clust19" class="cluster">
<title>cluster_AppModule_imports</title>
<polygon fill="none" stroke="black" points="380,-40.8 380,-92.8 524,-92.8 524,-40.8 380,-40.8"/>
</g>
<g id="clust21" class="cluster">
<title>cluster_AppModule_bootstrap</title>
<polygon fill="none" stroke="black" points="1521,-170.8 1521,-222.8 1645,-222.8 1645,-170.8 1521,-170.8"/>
</g>
<g id="clust22" class="cluster">
<title>cluster_AppModule_providers</title>
<polygon fill="none" stroke="black" points="16,-40.8 16,-92.8 372,-92.8 372,-40.8 16,-40.8"/>
</g>
<!-- AppComponent -->
<g id="node1" class="node">
<title>AppComponent</title>
<polygon fill="#ffffb3" stroke="black" points="3080.94,-84.8 2975.06,-84.8 2975.06,-48.8 3080.94,-48.8 3080.94,-84.8"/>
<text text-anchor="middle" x="3028" y="-62.6" font-family="Times,serif" font-size="14.00">AppComponent</text>
</g>
<!-- AppModule -->
<g id="node17" class="node">
<title>AppModule</title>
<polygon fill="#8dd3c7" stroke="black" points="1624.66,-149.8 1621.66,-153.8 1600.66,-153.8 1597.66,-149.8 1541.34,-149.8 1541.34,-113.8 1624.66,-113.8 1624.66,-149.8"/>
<text text-anchor="middle" x="1583" y="-127.6" font-family="Times,serif" font-size="14.00">AppModule</text>
</g>
<!-- AppComponent&#45;&gt;AppModule -->
<g id="edge1" class="edge">
<title>AppComponent&#45;&gt;AppModule</title>
<path fill="none" stroke="black" d="M3028,-84.95C3028,-108.56 3028,-146.8 3028,-146.8 3028,-146.8 1634.69,-146.8 1634.69,-146.8"/>
<polygon fill="black" stroke="black" points="1634.69,-143.3 1624.69,-146.8 1634.69,-150.3 1634.69,-143.3"/>
</g>
<!-- ContactPageComponent -->
<g id="node2" class="node">
<title>ContactPageComponent</title>
<polygon fill="#ffffb3" stroke="black" points="2957.09,-84.8 2804.91,-84.8 2804.91,-48.8 2957.09,-48.8 2957.09,-84.8"/>
<text text-anchor="middle" x="2881" y="-62.6" font-family="Times,serif" font-size="14.00">ContactPageComponent</text>
</g>
<!-- ContactPageComponent&#45;&gt;AppModule -->
<g id="edge2" class="edge">
<title>ContactPageComponent&#45;&gt;AppModule</title>
<path fill="none" stroke="black" d="M2881,-84.81C2881,-107.29 2881,-142.8 2881,-142.8 2881,-142.8 1634.72,-142.8 1634.72,-142.8"/>
<polygon fill="black" stroke="black" points="1634.72,-139.3 1624.72,-142.8 1634.72,-146.3 1634.72,-139.3"/>
</g>
<!-- CounterDataComponent -->
<g id="node3" class="node">
<title>CounterDataComponent</title>
<polygon fill="#ffffb3" stroke="black" points="2787.36,-84.8 2634.64,-84.8 2634.64,-48.8 2787.36,-48.8 2787.36,-84.8"/>
<text text-anchor="middle" x="2711" y="-62.6" font-family="Times,serif" font-size="14.00">CounterDataComponent</text>
</g>
<!-- CounterDataComponent&#45;&gt;AppModule -->
<g id="edge3" class="edge">
<title>CounterDataComponent&#45;&gt;AppModule</title>
<path fill="none" stroke="black" d="M2711,-84.84C2711,-106.46 2711,-139.8 2711,-139.8 2711,-139.8 1634.82,-139.8 1634.82,-139.8"/>
<polygon fill="black" stroke="black" points="1634.82,-136.3 1624.82,-139.8 1634.82,-143.3 1634.82,-136.3"/>
</g>
<!-- FileTreeComponent -->
<g id="node4" class="node">
<title>FileTreeComponent</title>
<polygon fill="#ffffb3" stroke="black" points="2616.25,-84.8 2487.75,-84.8 2487.75,-48.8 2616.25,-48.8 2616.25,-84.8"/>
<text text-anchor="middle" x="2552" y="-62.6" font-family="Times,serif" font-size="14.00">FileTreeComponent</text>
</g>
<!-- FileTreeComponent&#45;&gt;AppModule -->
<g id="edge4" class="edge">
<title>FileTreeComponent&#45;&gt;AppModule</title>
<path fill="none" stroke="black" d="M2552,-84.93C2552,-105.37 2552,-135.8 2552,-135.8 2552,-135.8 1634.95,-135.8 1634.95,-135.8"/>
<polygon fill="black" stroke="black" points="1634.95,-132.3 1624.95,-135.8 1634.95,-139.3 1634.95,-132.3"/>
</g>
<!-- FutureGreenTechComponent -->
<g id="node5" class="node">
<title>FutureGreenTechComponent</title>
<polygon fill="#ffffb3" stroke="black" points="2470.06,-84.8 2289.94,-84.8 2289.94,-48.8 2470.06,-48.8 2470.06,-84.8"/>
<text text-anchor="middle" x="2380" y="-62.6" font-family="Times,serif" font-size="14.00">FutureGreenTechComponent</text>
</g>
<!-- FutureGreenTechComponent&#45;&gt;AppModule -->
<g id="edge5" class="edge">
<title>FutureGreenTechComponent&#45;&gt;AppModule</title>
<path fill="none" stroke="black" d="M2380,-84.91C2380,-104.14 2380,-131.8 2380,-131.8 2380,-131.8 1634.73,-131.8 1634.73,-131.8"/>
<polygon fill="black" stroke="black" points="1634.73,-128.3 1624.73,-131.8 1634.73,-135.3 1634.73,-128.3"/>
</g>
<!-- HomepageComponent -->
<g id="node6" class="node">
<title>HomepageComponent</title>
<polygon fill="#ffffb3" stroke="black" points="2271.97,-84.8 2130.03,-84.8 2130.03,-48.8 2271.97,-48.8 2271.97,-84.8"/>
<text text-anchor="middle" x="2201" y="-62.6" font-family="Times,serif" font-size="14.00">HomepageComponent</text>
</g>
<!-- HomepageComponent&#45;&gt;AppModule -->
<g id="edge6" class="edge">
<title>HomepageComponent&#45;&gt;AppModule</title>
<path fill="none" stroke="black" d="M2201,-85.07C2201,-103.36 2201,-128.8 2201,-128.8 2201,-128.8 1634.99,-128.8 1634.99,-128.8"/>
<polygon fill="black" stroke="black" points="1634.99,-125.3 1624.99,-128.8 1634.99,-132.3 1634.99,-125.3"/>
</g>
<!-- MenuComponent -->
<g id="node7" class="node">
<title>MenuComponent</title>
<polygon fill="#ffffb3" stroke="black" points="2111.99,-84.8 1998.01,-84.8 1998.01,-48.8 2111.99,-48.8 2111.99,-84.8"/>
<text text-anchor="middle" x="2055" y="-62.6" font-family="Times,serif" font-size="14.00">MenuComponent</text>
</g>
<!-- MenuComponent&#45;&gt;AppModule -->
<g id="edge7" class="edge">
<title>MenuComponent&#45;&gt;AppModule</title>
<path fill="none" stroke="black" d="M2055,-84.83C2055,-101.86 2055,-124.8 2055,-124.8 2055,-124.8 1634.89,-124.8 1634.89,-124.8"/>
<polygon fill="black" stroke="black" points="1634.89,-121.3 1624.89,-124.8 1634.89,-128.3 1634.89,-121.3"/>
</g>
<!-- MessagesComponent -->
<g id="node8" class="node">
<title>MessagesComponent</title>
<polygon fill="#ffffb3" stroke="black" points="1979.75,-84.8 1844.25,-84.8 1844.25,-48.8 1979.75,-48.8 1979.75,-84.8"/>
<text text-anchor="middle" x="1912" y="-62.6" font-family="Times,serif" font-size="14.00">MessagesComponent</text>
</g>
<!-- MessagesComponent&#45;&gt;AppModule -->
<g id="edge8" class="edge">
<title>MessagesComponent&#45;&gt;AppModule</title>
<path fill="none" stroke="black" d="M1912,-84.81C1912,-100.85 1912,-121.8 1912,-121.8 1912,-121.8 1634.67,-121.8 1634.67,-121.8"/>
<polygon fill="black" stroke="black" points="1634.67,-118.3 1624.67,-121.8 1634.67,-125.3 1634.67,-118.3"/>
</g>
<!-- NgbCaruselComponent -->
<g id="node9" class="node">
<title>NgbCaruselComponent</title>
<polygon fill="#ffffb3" stroke="black" points="1826.2,-84.8 1677.8,-84.8 1677.8,-48.8 1826.2,-48.8 1826.2,-84.8"/>
<text text-anchor="middle" x="1752" y="-62.6" font-family="Times,serif" font-size="14.00">NgbCaruselComponent</text>
</g>
<!-- NgbCaruselComponent&#45;&gt;AppModule -->
<g id="edge9" class="edge">
<title>NgbCaruselComponent&#45;&gt;AppModule</title>
<path fill="none" stroke="black" d="M1752,-84.92C1752,-99.58 1752,-117.8 1752,-117.8 1752,-117.8 1634.78,-117.8 1634.78,-117.8"/>
<polygon fill="black" stroke="black" points="1634.78,-114.3 1624.78,-117.8 1634.78,-121.3 1634.78,-114.3"/>
</g>
<!-- NordschleifeComponent -->
<g id="node10" class="node">
<title>NordschleifeComponent</title>
<polygon fill="#ffffb3" stroke="black" points="1659.63,-84.8 1506.37,-84.8 1506.37,-48.8 1659.63,-48.8 1659.63,-84.8"/>
<text text-anchor="middle" x="1583" y="-62.6" font-family="Times,serif" font-size="14.00">NordschleifeComponent</text>
</g>
<!-- NordschleifeComponent&#45;&gt;AppModule -->
<g id="edge10" class="edge">
<title>NordschleifeComponent&#45;&gt;AppModule</title>
<path fill="none" stroke="black" d="M1583,-84.91C1583,-84.91 1583,-103.79 1583,-103.79"/>
<polygon fill="black" stroke="black" points="1579.5,-103.79 1583,-113.79 1586.5,-103.79 1579.5,-103.79"/>
</g>
<!-- PortfolioComponent -->
<g id="node11" class="node">
<title>PortfolioComponent</title>
<polygon fill="#ffffb3" stroke="black" points="1488.61,-84.8 1357.39,-84.8 1357.39,-48.8 1488.61,-48.8 1488.61,-84.8"/>
<text text-anchor="middle" x="1423" y="-62.6" font-family="Times,serif" font-size="14.00">PortfolioComponent</text>
</g>
<!-- PortfolioComponent&#45;&gt;AppModule -->
<g id="edge11" class="edge">
<title>PortfolioComponent&#45;&gt;AppModule</title>
<path fill="none" stroke="black" d="M1423,-84.92C1423,-99.58 1423,-117.8 1423,-117.8 1423,-117.8 1530.96,-117.8 1530.96,-117.8"/>
<polygon fill="black" stroke="black" points="1530.96,-121.3 1540.96,-117.8 1530.96,-114.3 1530.96,-121.3"/>
</g>
<!-- ProjectsGridComponent -->
<g id="node12" class="node">
<title>ProjectsGridComponent</title>
<polygon fill="#ffffb3" stroke="black" points="1339.09,-84.8 1186.91,-84.8 1186.91,-48.8 1339.09,-48.8 1339.09,-84.8"/>
<text text-anchor="middle" x="1263" y="-62.6" font-family="Times,serif" font-size="14.00">ProjectsGridComponent</text>
</g>
<!-- ProjectsGridComponent&#45;&gt;AppModule -->
<g id="edge12" class="edge">
<title>ProjectsGridComponent&#45;&gt;AppModule</title>
<path fill="none" stroke="black" d="M1263,-84.81C1263,-100.85 1263,-121.8 1263,-121.8 1263,-121.8 1531.17,-121.8 1531.17,-121.8"/>
<polygon fill="black" stroke="black" points="1531.17,-125.3 1541.17,-121.8 1531.17,-118.3 1531.17,-125.3"/>
</g>
<!-- QuoPicComponent -->
<g id="node13" class="node">
<title>QuoPicComponent</title>
<polygon fill="#ffffb3" stroke="black" points="1168.83,-84.8 1045.17,-84.8 1045.17,-48.8 1168.83,-48.8 1168.83,-84.8"/>
<text text-anchor="middle" x="1107" y="-62.6" font-family="Times,serif" font-size="14.00">QuoPicComponent</text>
</g>
<!-- QuoPicComponent&#45;&gt;AppModule -->
<g id="edge13" class="edge">
<title>QuoPicComponent&#45;&gt;AppModule</title>
<path fill="none" stroke="black" d="M1107,-84.83C1107,-101.86 1107,-124.8 1107,-124.8 1107,-124.8 1531.18,-124.8 1531.18,-124.8"/>
<polygon fill="black" stroke="black" points="1531.18,-128.3 1541.18,-124.8 1531.18,-121.3 1531.18,-128.3"/>
</g>
<!-- RespGalleryComponent -->
<g id="node14" class="node">
<title>RespGalleryComponent</title>
<polygon fill="#ffffb3" stroke="black" points="1027.81,-84.8 876.19,-84.8 876.19,-48.8 1027.81,-48.8 1027.81,-84.8"/>
<text text-anchor="middle" x="952" y="-62.6" font-family="Times,serif" font-size="14.00">RespGalleryComponent</text>
</g>
<!-- RespGalleryComponent&#45;&gt;AppModule -->
<g id="edge14" class="edge">
<title>RespGalleryComponent&#45;&gt;AppModule</title>
<path fill="none" stroke="black" d="M952,-85.07C952,-103.36 952,-128.8 952,-128.8 952,-128.8 1531.11,-128.8 1531.11,-128.8"/>
<polygon fill="black" stroke="black" points="1531.11,-132.3 1541.11,-128.8 1531.11,-125.3 1531.11,-132.3"/>
</g>
<!-- ThemeSwitchComponent -->
<g id="node15" class="node">
<title>ThemeSwitchComponent</title>
<polygon fill="#ffffb3" stroke="black" points="858.59,-84.8 699.41,-84.8 699.41,-48.8 858.59,-48.8 858.59,-84.8"/>
<text text-anchor="middle" x="779" y="-62.6" font-family="Times,serif" font-size="14.00">ThemeSwitchComponent</text>
</g>
<!-- ThemeSwitchComponent&#45;&gt;AppModule -->
<g id="edge15" class="edge">
<title>ThemeSwitchComponent&#45;&gt;AppModule</title>
<path fill="none" stroke="black" d="M779,-84.91C779,-104.14 779,-131.8 779,-131.8 779,-131.8 1531.19,-131.8 1531.19,-131.8"/>
<polygon fill="black" stroke="black" points="1531.19,-135.3 1541.19,-131.8 1531.19,-128.3 1531.19,-135.3"/>
</g>
<!-- UserLoginComponent -->
<g id="node16" class="node">
<title>UserLoginComponent</title>
<polygon fill="#ffffb3" stroke="black" points="681.7,-84.8 540.3,-84.8 540.3,-48.8 681.7,-48.8 681.7,-84.8"/>
<text text-anchor="middle" x="611" y="-62.6" font-family="Times,serif" font-size="14.00">UserLoginComponent</text>
</g>
<!-- UserLoginComponent&#45;&gt;AppModule -->
<g id="edge16" class="edge">
<title>UserLoginComponent&#45;&gt;AppModule</title>
<path fill="none" stroke="black" d="M611,-84.93C611,-105.37 611,-135.8 611,-135.8 611,-135.8 1531.23,-135.8 1531.23,-135.8"/>
<polygon fill="black" stroke="black" points="1531.23,-139.3 1541.23,-135.8 1531.23,-132.3 1531.23,-139.3"/>
</g>
<!-- AppComponent  -->
<g id="node19" class="node">
<title>AppComponent </title>
<polygon fill="#80b1d3" stroke="black" points="1637.44,-214.8 1528.56,-214.8 1528.56,-178.8 1637.44,-178.8 1637.44,-214.8"/>
<text text-anchor="middle" x="1583" y="-192.6" font-family="Times,serif" font-size="14.00">AppComponent </text>
</g>
<!-- AppModule&#45;&gt;AppComponent  -->
<g id="edge18" class="edge">
<title>AppModule&#45;&gt;AppComponent </title>
<path fill="none" stroke="black" stroke-dasharray="1,5" d="M1583,-149.91C1583,-149.91 1583,-168.79 1583,-168.79"/>
<polygon fill="black" stroke="black" points="1579.5,-168.79 1583,-178.79 1586.5,-168.79 1579.5,-168.79"/>
</g>
<!-- AppRoutingModule -->
<g id="node18" class="node">
<title>AppRoutingModule</title>
<polygon fill="#8dd3c7" stroke="black" points="516.27,-84.8 513.27,-88.8 492.27,-88.8 489.27,-84.8 387.73,-84.8 387.73,-48.8 516.27,-48.8 516.27,-84.8"/>
<text text-anchor="middle" x="452" y="-62.6" font-family="Times,serif" font-size="14.00">AppRoutingModule</text>
</g>
<!-- AppRoutingModule&#45;&gt;AppModule -->
<g id="edge17" class="edge">
<title>AppRoutingModule&#45;&gt;AppModule</title>
<path fill="none" stroke="black" d="M452,-84.84C452,-106.46 452,-139.8 452,-139.8 452,-139.8 1531.07,-139.8 1531.07,-139.8"/>
<polygon fill="black" stroke="black" points="1531.07,-143.3 1541.07,-139.8 1531.07,-136.3 1531.07,-143.3"/>
</g>
<!-- StyleManagerService -->
<g id="node20" class="node">
<title>StyleManagerService</title>
<ellipse fill="#fdb462" stroke="black" cx="270" cy="-66.8" rx="94.32" ry="18"/>
<text text-anchor="middle" x="270" y="-62.6" font-family="Times,serif" font-size="14.00">StyleManagerService</text>
</g>
<!-- StyleManagerService&#45;&gt;AppModule -->
<g id="edge19" class="edge">
<title>StyleManagerService&#45;&gt;AppModule</title>
<path fill="none" stroke="black" d="M270,-84.81C270,-107.29 270,-142.8 270,-142.8 270,-142.8 1531.17,-142.8 1531.17,-142.8"/>
<polygon fill="black" stroke="black" points="1531.17,-146.3 1541.17,-142.8 1531.17,-139.3 1531.17,-146.3"/>
</g>
<!-- ThemeService -->
<g id="node21" class="node">
<title>ThemeService</title>
<ellipse fill="#fdb462" stroke="black" cx="91" cy="-66.8" rx="66.61" ry="18"/>
<text text-anchor="middle" x="91" y="-62.6" font-family="Times,serif" font-size="14.00">ThemeService</text>
</g>
<!-- ThemeService&#45;&gt;AppModule -->
<g id="edge20" class="edge">
<title>ThemeService&#45;&gt;AppModule</title>
<path fill="none" stroke="black" d="M91,-84.95C91,-108.56 91,-146.8 91,-146.8 91,-146.8 1531.15,-146.8 1531.15,-146.8"/>
<polygon fill="black" stroke="black" points="1531.15,-150.3 1541.15,-146.8 1531.15,-143.3 1531.15,-150.3"/>
</g>
</g>
</svg>
