<?xml version="1.0" encoding="UTF-8" standalone="no"?>
<!DOCTYPE svg PUBLIC "-//W3C//DTD SVG 20010904//EN"
              "http://www.w3.org/TR/2001/REC-SVG-20010904/DTD/svg10.dtd">

<svg xmlns="http://www.w3.org/2000/svg"
     width="1.70667in" height="1.70667in"
     viewBox="0 0 512 512">
  <path id="Unnamed #1"
        fill="none" stroke="black" stroke-width="1"
        d="M 84.00,109.50
           C 103.50,46.50 222.00,189.00 55.50,154.50
             13.50,135.00 -15.00,4.50 87.00,24.00
             166.25,69.67 193.50,115.50 274.50,106.50
             433.50,73.50 138.00,-103.50 223.50,160.50
             226.50,156.00 369.00,486.00 156.00,495.00
             -199.50,480.00 229.50,115.50 390.00,175.50
             469.50,216.00 433.50,354.00 339.00,349.50
             259.50,340.50 339.00,259.50 454.50,327.00
             531.00,382.50 496.50,507.00 292.50,471.00
             126.00,441.00 93.00,345.00 174.00,340.50M -501.00,447.00" />
</svg>
