<?xml version="1.0" encoding="UTF-8" standalone="no"?>
<!DOCTYPE svg PUBLIC "-//W3C//DTD SVG 1.1//EN"
 "http://www.w3.org/Graphics/SVG/1.1/DTD/svg11.dtd">
<!-- Generated by graphviz version 2.47.3 (20210619.1520)
 -->
<!-- Title: dependencies Pages: 1 -->
<svg width="3113pt" height="247pt"
 viewBox="0.00 0.00 3113.00 246.80" xmlns="http://www.w3.org/2000/svg" xmlns:xlink="http://www.w3.org/1999/xlink">
<g id="graph0" class="graph" transform="scale(1 1) rotate(0) translate(4 242.8)">
<title>dependencies</title>
<polygon fill="white" stroke="transparent" points="-4,4 -4,-242.8 3109,-242.8 3109,4 -4,4"/>
<text text-anchor="middle" x="1552.5" y="-8.2" font-family="sans-serif" font-size="14.00">dependencies</text>
<g id="clust1" class="cluster">
<title>cluster_AppModule</title>
<polygon fill="none" stroke="black" stroke-dasharray="1,5" points="8,-32.8 8,-230.8 3097,-230.8 3097,-32.8 8,-32.8"/>
</g>
<g id="clust22" class="cluster">
<title>cluster_AppModule_providers</title>
<polygon fill="none" stroke="black" points="2733,-40.8 2733,-92.8 3089,-92.8 3089,-40.8 2733,-40.8"/>
</g>
<g id="clust19" class="cluster">
<title>cluster_AppModule_imports</title>
<polygon fill="none" stroke="black" points="2581,-40.8 2581,-92.8 2725,-92.8 2725,-40.8 2581,-40.8"/>
</g>
<g id="clust21" class="cluster">
<title>cluster_AppModule_bootstrap</title>
<polygon fill="none" stroke="black" points="1477,-170.8 1477,-222.8 1601,-222.8 1601,-170.8 1477,-170.8"/>
</g>
<g id="clust2" class="cluster">
<title>cluster_AppModule_declarations</title>
<polygon fill="none" stroke="black" points="16,-40.8 16,-92.8 2573,-92.8 2573,-40.8 16,-40.8"/>
</g>
<!-- AppComponent -->
<g id="node1" class="node">
<title>AppComponent</title>
<polygon fill="#ffffb3" stroke="black" points="2564.94,-84.8 2459.06,-84.8 2459.06,-48.8 2564.94,-48.8 2564.94,-84.8"/>
<text text-anchor="middle" x="2512" y="-62.6" font-family="Times,serif" font-size="14.00">AppComponent</text>
</g>
<!-- AppModule -->
<g id="node17" class="node">
<title>AppModule</title>
<polygon fill="#8dd3c7" stroke="black" points="1580.66,-149.8 1577.66,-153.8 1556.66,-153.8 1553.66,-149.8 1497.34,-149.8 1497.34,-113.8 1580.66,-113.8 1580.66,-149.8"/>
<text text-anchor="middle" x="1539" y="-127.6" font-family="Times,serif" font-size="14.00">AppModule</text>
</g>
<!-- AppComponent&#45;&gt;AppModule -->
<g id="edge1" class="edge">
<title>AppComponent&#45;&gt;AppModule</title>
<path fill="none" stroke="black" d="M2512,-84.93C2512,-105.37 2512,-135.8 2512,-135.8 2512,-135.8 1590.81,-135.8 1590.81,-135.8"/>
<polygon fill="black" stroke="black" points="1590.81,-132.3 1580.81,-135.8 1590.81,-139.3 1590.81,-132.3"/>
</g>
<!-- ContactPageComponent -->
<g id="node2" class="node">
<title>ContactPageComponent</title>
<polygon fill="#ffffb3" stroke="black" points="2441.09,-84.8 2288.91,-84.8 2288.91,-48.8 2441.09,-48.8 2441.09,-84.8"/>
<text text-anchor="middle" x="2365" y="-62.6" font-family="Times,serif" font-size="14.00">ContactPageComponent</text>
</g>
<!-- ContactPageComponent&#45;&gt;AppModule -->
<g id="edge2" class="edge">
<title>ContactPageComponent&#45;&gt;AppModule</title>
<path fill="none" stroke="black" d="M2365,-84.91C2365,-104.14 2365,-131.8 2365,-131.8 2365,-131.8 1590.81,-131.8 1590.81,-131.8"/>
<polygon fill="black" stroke="black" points="1590.81,-128.3 1580.81,-131.8 1590.81,-135.3 1590.81,-128.3"/>
</g>
<!-- CounterDataComponent -->
<g id="node3" class="node">
<title>CounterDataComponent</title>
<polygon fill="#ffffb3" stroke="black" points="2271.36,-84.8 2118.64,-84.8 2118.64,-48.8 2271.36,-48.8 2271.36,-84.8"/>
<text text-anchor="middle" x="2195" y="-62.6" font-family="Times,serif" font-size="14.00">CounterDataComponent</text>
</g>
<!-- CounterDataComponent&#45;&gt;AppModule -->
<g id="edge3" class="edge">
<title>CounterDataComponent&#45;&gt;AppModule</title>
<path fill="none" stroke="black" d="M2195,-85.07C2195,-103.36 2195,-128.8 2195,-128.8 2195,-128.8 1590.78,-128.8 1590.78,-128.8"/>
<polygon fill="black" stroke="black" points="1590.78,-125.3 1580.78,-128.8 1590.78,-132.3 1590.78,-125.3"/>
</g>
<!-- FileTreeComponent -->
<g id="node4" class="node">
<title>FileTreeComponent</title>
<polygon fill="#ffffb3" stroke="black" points="2100.25,-84.8 1971.75,-84.8 1971.75,-48.8 2100.25,-48.8 2100.25,-84.8"/>
<text text-anchor="middle" x="2036" y="-62.6" font-family="Times,serif" font-size="14.00">FileTreeComponent</text>
</g>
<!-- FileTreeComponent&#45;&gt;AppModule -->
<g id="edge4" class="edge">
<title>FileTreeComponent&#45;&gt;AppModule</title>
<path fill="none" stroke="black" d="M2036,-84.83C2036,-101.86 2036,-124.8 2036,-124.8 2036,-124.8 1590.95,-124.8 1590.95,-124.8"/>
<polygon fill="black" stroke="black" points="1590.95,-121.3 1580.95,-124.8 1590.95,-128.3 1590.95,-121.3"/>
</g>
<!-- FutureGreenTechComponent -->
<g id="node5" class="node">
<title>FutureGreenTechComponent</title>
<polygon fill="#ffffb3" stroke="black" points="1954.06,-84.8 1773.94,-84.8 1773.94,-48.8 1954.06,-48.8 1954.06,-84.8"/>
<text text-anchor="middle" x="1864" y="-62.6" font-family="Times,serif" font-size="14.00">FutureGreenTechComponent</text>
</g>
<!-- FutureGreenTechComponent&#45;&gt;AppModule -->
<g id="edge5" class="edge">
<title>FutureGreenTechComponent&#45;&gt;AppModule</title>
<path fill="none" stroke="black" d="M1864,-84.81C1864,-100.85 1864,-121.8 1864,-121.8 1864,-121.8 1590.82,-121.8 1590.82,-121.8"/>
<polygon fill="black" stroke="black" points="1590.82,-118.3 1580.82,-121.8 1590.82,-125.3 1590.82,-118.3"/>
</g>
<!-- HomepageComponent -->
<g id="node6" class="node">
<title>HomepageComponent</title>
<polygon fill="#ffffb3" stroke="black" points="1755.97,-84.8 1614.03,-84.8 1614.03,-48.8 1755.97,-48.8 1755.97,-84.8"/>
<text text-anchor="middle" x="1685" y="-62.6" font-family="Times,serif" font-size="14.00">HomepageComponent</text>
</g>
<!-- HomepageComponent&#45;&gt;AppModule -->
<g id="edge6" class="edge">
<title>HomepageComponent&#45;&gt;AppModule</title>
<path fill="none" stroke="black" d="M1685,-84.92C1685,-99.58 1685,-117.8 1685,-117.8 1685,-117.8 1590.84,-117.8 1590.84,-117.8"/>
<polygon fill="black" stroke="black" points="1590.84,-114.3 1580.84,-117.8 1590.84,-121.3 1590.84,-114.3"/>
</g>
<!-- MenuComponent -->
<g id="node7" class="node">
<title>MenuComponent</title>
<polygon fill="#ffffb3" stroke="black" points="1595.99,-84.8 1482.01,-84.8 1482.01,-48.8 1595.99,-48.8 1595.99,-84.8"/>
<text text-anchor="middle" x="1539" y="-62.6" font-family="Times,serif" font-size="14.00">MenuComponent</text>
</g>
<!-- MenuComponent&#45;&gt;AppModule -->
<g id="edge7" class="edge">
<title>MenuComponent&#45;&gt;AppModule</title>
<path fill="none" stroke="black" d="M1539,-84.91C1539,-84.91 1539,-103.79 1539,-103.79"/>
<polygon fill="black" stroke="black" points="1535.5,-103.79 1539,-113.79 1542.5,-103.79 1535.5,-103.79"/>
</g>
<!-- MessagesComponent -->
<g id="node8" class="node">
<title>MessagesComponent</title>
<polygon fill="#ffffb3" stroke="black" points="1463.75,-84.8 1328.25,-84.8 1328.25,-48.8 1463.75,-48.8 1463.75,-84.8"/>
<text text-anchor="middle" x="1396" y="-62.6" font-family="Times,serif" font-size="14.00">MessagesComponent</text>
</g>
<!-- MessagesComponent&#45;&gt;AppModule -->
<g id="edge8" class="edge">
<title>MessagesComponent&#45;&gt;AppModule</title>
<path fill="none" stroke="black" d="M1396,-84.92C1396,-99.58 1396,-117.8 1396,-117.8 1396,-117.8 1487.25,-117.8 1487.25,-117.8"/>
<polygon fill="black" stroke="black" points="1487.25,-121.3 1497.25,-117.8 1487.25,-114.3 1487.25,-121.3"/>
</g>
<!-- NgbCaruselComponent -->
<g id="node9" class="node">
<title>NgbCaruselComponent</title>
<polygon fill="#ffffb3" stroke="black" points="1310.2,-84.8 1161.8,-84.8 1161.8,-48.8 1310.2,-48.8 1310.2,-84.8"/>
<text text-anchor="middle" x="1236" y="-62.6" font-family="Times,serif" font-size="14.00">NgbCaruselComponent</text>
</g>
<!-- NgbCaruselComponent&#45;&gt;AppModule -->
<g id="edge9" class="edge">
<title>NgbCaruselComponent&#45;&gt;AppModule</title>
<path fill="none" stroke="black" d="M1236,-84.81C1236,-100.85 1236,-121.8 1236,-121.8 1236,-121.8 1487.19,-121.8 1487.19,-121.8"/>
<polygon fill="black" stroke="black" points="1487.19,-125.3 1497.19,-121.8 1487.19,-118.3 1487.19,-125.3"/>
</g>
<!-- NordschleifeComponent -->
<g id="node10" class="node">
<title>NordschleifeComponent</title>
<polygon fill="#ffffb3" stroke="black" points="1143.63,-84.8 990.37,-84.8 990.37,-48.8 1143.63,-48.8 1143.63,-84.8"/>
<text text-anchor="middle" x="1067" y="-62.6" font-family="Times,serif" font-size="14.00">NordschleifeComponent</text>
</g>
<!-- NordschleifeComponent&#45;&gt;AppModule -->
<g id="edge10" class="edge">
<title>NordschleifeComponent&#45;&gt;AppModule</title>
<path fill="none" stroke="black" d="M1067,-84.83C1067,-101.86 1067,-124.8 1067,-124.8 1067,-124.8 1487.11,-124.8 1487.11,-124.8"/>
<polygon fill="black" stroke="black" points="1487.11,-128.3 1497.11,-124.8 1487.11,-121.3 1487.11,-128.3"/>
</g>
<!-- PortfolioComponent -->
<g id="node11" class="node">
<title>PortfolioComponent</title>
<polygon fill="#ffffb3" stroke="black" points="972.61,-84.8 841.39,-84.8 841.39,-48.8 972.61,-48.8 972.61,-84.8"/>
<text text-anchor="middle" x="907" y="-62.6" font-family="Times,serif" font-size="14.00">PortfolioComponent</text>
</g>
<!-- PortfolioComponent&#45;&gt;AppModule -->
<g id="edge11" class="edge">
<title>PortfolioComponent&#45;&gt;AppModule</title>
<path fill="none" stroke="black" d="M907,-85.07C907,-103.36 907,-128.8 907,-128.8 907,-128.8 1487.04,-128.8 1487.04,-128.8"/>
<polygon fill="black" stroke="black" points="1487.04,-132.3 1497.04,-128.8 1487.04,-125.3 1487.04,-132.3"/>
</g>
<!-- ProjectsGridComponent -->
<g id="node12" class="node">
<title>ProjectsGridComponent</title>
<polygon fill="#ffffb3" stroke="black" points="823.09,-84.8 670.91,-84.8 670.91,-48.8 823.09,-48.8 823.09,-84.8"/>
<text text-anchor="middle" x="747" y="-62.6" font-family="Times,serif" font-size="14.00">ProjectsGridComponent</text>
</g>
<!-- ProjectsGridComponent&#45;&gt;AppModule -->
<g id="edge12" class="edge">
<title>ProjectsGridComponent&#45;&gt;AppModule</title>
<path fill="none" stroke="black" d="M747,-84.91C747,-104.14 747,-131.8 747,-131.8 747,-131.8 1487.26,-131.8 1487.26,-131.8"/>
<polygon fill="black" stroke="black" points="1487.26,-135.3 1497.26,-131.8 1487.26,-128.3 1487.26,-135.3"/>
</g>
<!-- QuoPicComponent -->
<g id="node13" class="node">
<title>QuoPicComponent</title>
<polygon fill="#ffffb3" stroke="black" points="652.83,-84.8 529.17,-84.8 529.17,-48.8 652.83,-48.8 652.83,-84.8"/>
<text text-anchor="middle" x="591" y="-62.6" font-family="Times,serif" font-size="14.00">QuoPicComponent</text>
</g>
<!-- QuoPicComponent&#45;&gt;AppModule -->
<g id="edge13" class="edge">
<title>QuoPicComponent&#45;&gt;AppModule</title>
<path fill="none" stroke="black" d="M591,-84.93C591,-105.37 591,-135.8 591,-135.8 591,-135.8 1487.04,-135.8 1487.04,-135.8"/>
<polygon fill="black" stroke="black" points="1487.04,-139.3 1497.04,-135.8 1487.04,-132.3 1487.04,-139.3"/>
</g>
<!-- RespGalleryComponent -->
<g id="node14" class="node">
<title>RespGalleryComponent</title>
<polygon fill="#ffffb3" stroke="black" points="511.81,-84.8 360.19,-84.8 360.19,-48.8 511.81,-48.8 511.81,-84.8"/>
<text text-anchor="middle" x="436" y="-62.6" font-family="Times,serif" font-size="14.00">RespGalleryComponent</text>
</g>
<!-- RespGalleryComponent&#45;&gt;AppModule -->
<g id="edge14" class="edge">
<title>RespGalleryComponent&#45;&gt;AppModule</title>
<path fill="none" stroke="black" d="M436,-84.84C436,-106.46 436,-139.8 436,-139.8 436,-139.8 1487.11,-139.8 1487.11,-139.8"/>
<polygon fill="black" stroke="black" points="1487.11,-143.3 1497.11,-139.8 1487.11,-136.3 1487.11,-143.3"/>
</g>
<!-- ThemeSwitchComponent -->
<g id="node15" class="node">
<title>ThemeSwitchComponent</title>
<polygon fill="#ffffb3" stroke="black" points="342.59,-84.8 183.41,-84.8 183.41,-48.8 342.59,-48.8 342.59,-84.8"/>
<text text-anchor="middle" x="263" y="-62.6" font-family="Times,serif" font-size="14.00">ThemeSwitchComponent</text>
</g>
<!-- ThemeSwitchComponent&#45;&gt;AppModule -->
<g id="edge15" class="edge">
<title>ThemeSwitchComponent&#45;&gt;AppModule</title>
<path fill="none" stroke="black" d="M263,-84.81C263,-107.29 263,-142.8 263,-142.8 263,-142.8 1487.27,-142.8 1487.27,-142.8"/>
<polygon fill="black" stroke="black" points="1487.27,-146.3 1497.27,-142.8 1487.27,-139.3 1487.27,-146.3"/>
</g>
<!-- UserLoginComponent -->
<g id="node16" class="node">
<title>UserLoginComponent</title>
<polygon fill="#ffffb3" stroke="black" points="165.7,-84.8 24.3,-84.8 24.3,-48.8 165.7,-48.8 165.7,-84.8"/>
<text text-anchor="middle" x="95" y="-62.6" font-family="Times,serif" font-size="14.00">UserLoginComponent</text>
</g>
<!-- UserLoginComponent&#45;&gt;AppModule -->
<g id="edge16" class="edge">
<title>UserLoginComponent&#45;&gt;AppModule</title>
<path fill="none" stroke="black" d="M95,-84.95C95,-108.56 95,-146.8 95,-146.8 95,-146.8 1487.34,-146.8 1487.34,-146.8"/>
<polygon fill="black" stroke="black" points="1487.34,-150.3 1497.34,-146.8 1487.34,-143.3 1487.34,-150.3"/>
</g>
<!-- AppComponent  -->
<g id="node19" class="node">
<title>AppComponent </title>
<polygon fill="#80b1d3" stroke="black" points="1593.44,-214.8 1484.56,-214.8 1484.56,-178.8 1593.44,-178.8 1593.44,-214.8"/>
<text text-anchor="middle" x="1539" y="-192.6" font-family="Times,serif" font-size="14.00">AppComponent </text>
</g>
<!-- AppModule&#45;&gt;AppComponent  -->
<g id="edge18" class="edge">
<title>AppModule&#45;&gt;AppComponent </title>
<path fill="none" stroke="black" stroke-dasharray="1,5" d="M1539,-149.91C1539,-149.91 1539,-168.79 1539,-168.79"/>
<polygon fill="black" stroke="black" points="1535.5,-168.79 1539,-178.79 1542.5,-168.79 1535.5,-168.79"/>
</g>
<!-- AppRoutingModule -->
<g id="node18" class="node">
<title>AppRoutingModule</title>
<polygon fill="#8dd3c7" stroke="black" points="2717.27,-84.8 2714.27,-88.8 2693.27,-88.8 2690.27,-84.8 2588.73,-84.8 2588.73,-48.8 2717.27,-48.8 2717.27,-84.8"/>
<text text-anchor="middle" x="2653" y="-62.6" font-family="Times,serif" font-size="14.00">AppRoutingModule</text>
</g>
<!-- AppRoutingModule&#45;&gt;AppModule -->
<g id="edge17" class="edge">
<title>AppRoutingModule&#45;&gt;AppModule</title>
<path fill="none" stroke="black" d="M2653,-84.84C2653,-106.46 2653,-139.8 2653,-139.8 2653,-139.8 1590.97,-139.8 1590.97,-139.8"/>
<polygon fill="black" stroke="black" points="1590.97,-136.3 1580.97,-139.8 1590.97,-143.3 1590.97,-136.3"/>
</g>
<!-- StyleManagerService -->
<g id="node20" class="node">
<title>StyleManagerService</title>
<ellipse fill="#fdb462" stroke="black" cx="2987" cy="-66.8" rx="94.32" ry="18"/>
<text text-anchor="middle" x="2987" y="-62.6" font-family="Times,serif" font-size="14.00">StyleManagerService</text>
</g>
<!-- StyleManagerService&#45;&gt;AppModule -->
<g id="edge19" class="edge">
<title>StyleManagerService&#45;&gt;AppModule</title>
<path fill="none" stroke="black" d="M2987,-84.95C2987,-108.56 2987,-146.8 2987,-146.8 2987,-146.8 1590.77,-146.8 1590.77,-146.8"/>
<polygon fill="black" stroke="black" points="1590.77,-143.3 1580.77,-146.8 1590.77,-150.3 1590.77,-143.3"/>
</g>
<!-- ThemeService -->
<g id="node21" class="node">
<title>ThemeService</title>
<ellipse fill="#fdb462" stroke="black" cx="2808" cy="-66.8" rx="66.61" ry="18"/>
<text text-anchor="middle" x="2808" y="-62.6" font-family="Times,serif" font-size="14.00">ThemeService</text>
</g>
<!-- ThemeService&#45;&gt;AppModule -->
<g id="edge20" class="edge">
<title>ThemeService&#45;&gt;AppModule</title>
<path fill="none" stroke="black" d="M2808,-84.81C2808,-107.29 2808,-142.8 2808,-142.8 2808,-142.8 1590.86,-142.8 1590.86,-142.8"/>
<polygon fill="black" stroke="black" points="1590.86,-139.3 1580.86,-142.8 1590.86,-146.3 1590.86,-139.3"/>
</g>
</g>
</svg>
