<?xml version="1.0" encoding="UTF-8" standalone="no"?>
<!DOCTYPE svg PUBLIC "-//W3C//DTD SVG 1.1//EN"
 "http://www.w3.org/Graphics/SVG/1.1/DTD/svg11.dtd">
<!-- Generated by graphviz version 2.47.3 (20210619.1520)
 -->
<!-- Title: dependencies Pages: 1 -->
<svg width="2284pt" height="247pt"
 viewBox="0.00 0.00 2284.00 246.80" xmlns="http://www.w3.org/2000/svg" xmlns:xlink="http://www.w3.org/1999/xlink">
<g id="graph0" class="graph" transform="scale(1 1) rotate(0) translate(4 242.8)">
<title>dependencies</title>
<polygon fill="white" stroke="transparent" points="-4,4 -4,-242.8 2280,-242.8 2280,4 -4,4"/>
<text text-anchor="middle" x="1138" y="-8.2" font-family="sans-serif" font-size="14.00">dependencies</text>
<g id="clust1" class="cluster">
<title>cluster_AppModule</title>
<polygon fill="none" stroke="black" stroke-dasharray="1,5" points="8,-32.8 8,-230.8 2268,-230.8 2268,-32.8 8,-32.8"/>
</g>
<g id="clust14" class="cluster">
<title>cluster_AppModule_imports</title>
<polygon fill="none" stroke="black" points="2116,-40.8 2116,-92.8 2260,-92.8 2260,-40.8 2116,-40.8"/>
</g>
<g id="clust16" class="cluster">
<title>cluster_AppModule_bootstrap</title>
<polygon fill="none" stroke="black" points="1068,-170.8 1068,-222.8 1192,-222.8 1192,-170.8 1068,-170.8"/>
</g>
<g id="clust17" class="cluster">
<title>cluster_AppModule_providers</title>
<polygon fill="none" stroke="black" points="1752,-40.8 1752,-92.8 2108,-92.8 2108,-40.8 1752,-40.8"/>
</g>
<g id="clust2" class="cluster">
<title>cluster_AppModule_declarations</title>
<polygon fill="none" stroke="black" points="16,-40.8 16,-92.8 1744,-92.8 1744,-40.8 16,-40.8"/>
</g>
<!-- AppComponent -->
<g id="node1" class="node">
<title>AppComponent</title>
<polygon fill="#ffffb3" stroke="black" points="1735.94,-84.8 1630.06,-84.8 1630.06,-48.8 1735.94,-48.8 1735.94,-84.8"/>
<text text-anchor="middle" x="1683" y="-62.6" font-family="Times,serif" font-size="14.00">AppComponent</text>
</g>
<!-- AppModule -->
<g id="node12" class="node">
<title>AppModule</title>
<polygon fill="#8dd3c7" stroke="black" points="1171.66,-149.8 1168.66,-153.8 1147.66,-153.8 1144.66,-149.8 1088.34,-149.8 1088.34,-113.8 1171.66,-113.8 1171.66,-149.8"/>
<text text-anchor="middle" x="1130" y="-127.6" font-family="Times,serif" font-size="14.00">AppModule</text>
</g>
<!-- AppComponent&#45;&gt;AppModule -->
<g id="edge1" class="edge">
<title>AppComponent&#45;&gt;AppModule</title>
<path fill="none" stroke="black" d="M1683,-85.02C1683,-103.63 1683,-129.8 1683,-129.8 1683,-129.8 1182.02,-129.8 1182.02,-129.8"/>
<polygon fill="black" stroke="black" points="1182.02,-126.3 1172.02,-129.8 1182.02,-133.3 1182.02,-126.3"/>
</g>
<!-- ContactPageComponent -->
<g id="node2" class="node">
<title>ContactPageComponent</title>
<polygon fill="#ffffb3" stroke="black" points="1612.09,-84.8 1459.91,-84.8 1459.91,-48.8 1612.09,-48.8 1612.09,-84.8"/>
<text text-anchor="middle" x="1536" y="-62.6" font-family="Times,serif" font-size="14.00">ContactPageComponent</text>
</g>
<!-- ContactPageComponent&#45;&gt;AppModule -->
<g id="edge2" class="edge">
<title>ContactPageComponent&#45;&gt;AppModule</title>
<path fill="none" stroke="black" d="M1536,-84.83C1536,-101.86 1536,-124.8 1536,-124.8 1536,-124.8 1181.92,-124.8 1181.92,-124.8"/>
<polygon fill="black" stroke="black" points="1181.92,-121.3 1171.92,-124.8 1181.92,-128.3 1181.92,-121.3"/>
</g>
<!-- CounterDataComponent -->
<g id="node3" class="node">
<title>CounterDataComponent</title>
<polygon fill="#ffffb3" stroke="black" points="1442.36,-84.8 1289.64,-84.8 1289.64,-48.8 1442.36,-48.8 1442.36,-84.8"/>
<text text-anchor="middle" x="1366" y="-62.6" font-family="Times,serif" font-size="14.00">CounterDataComponent</text>
</g>
<!-- CounterDataComponent&#45;&gt;AppModule -->
<g id="edge3" class="edge">
<title>CounterDataComponent&#45;&gt;AppModule</title>
<path fill="none" stroke="black" d="M1366,-85.04C1366,-100.37 1366,-119.8 1366,-119.8 1366,-119.8 1181.92,-119.8 1181.92,-119.8"/>
<polygon fill="black" stroke="black" points="1181.92,-116.3 1171.92,-119.8 1181.92,-123.3 1181.92,-116.3"/>
</g>
<!-- FileTreeComponent -->
<g id="node4" class="node">
<title>FileTreeComponent</title>
<polygon fill="#ffffb3" stroke="black" points="1271.25,-84.8 1142.75,-84.8 1142.75,-48.8 1271.25,-48.8 1271.25,-84.8"/>
<text text-anchor="middle" x="1207" y="-62.6" font-family="Times,serif" font-size="14.00">FileTreeComponent</text>
</g>
<!-- FileTreeComponent&#45;&gt;AppModule -->
<g id="edge4" class="edge">
<title>FileTreeComponent&#45;&gt;AppModule</title>
<path fill="none" stroke="black" d="M1157.23,-84.91C1157.23,-84.91 1157.23,-103.79 1157.23,-103.79"/>
<polygon fill="black" stroke="black" points="1153.73,-103.79 1157.23,-113.79 1160.73,-103.79 1153.73,-103.79"/>
</g>
<!-- HomepageComponent -->
<g id="node5" class="node">
<title>HomepageComponent</title>
<polygon fill="#ffffb3" stroke="black" points="1124.97,-84.8 983.03,-84.8 983.03,-48.8 1124.97,-48.8 1124.97,-84.8"/>
<text text-anchor="middle" x="1054" y="-62.6" font-family="Times,serif" font-size="14.00">HomepageComponent</text>
</g>
<!-- HomepageComponent&#45;&gt;AppModule -->
<g id="edge5" class="edge">
<title>HomepageComponent&#45;&gt;AppModule</title>
<path fill="none" stroke="black" d="M1106.58,-84.91C1106.58,-84.91 1106.58,-103.79 1106.58,-103.79"/>
<polygon fill="black" stroke="black" points="1103.08,-103.79 1106.58,-113.79 1110.08,-103.79 1103.08,-103.79"/>
</g>
<!-- MenuComponent -->
<g id="node6" class="node">
<title>MenuComponent</title>
<polygon fill="#ffffb3" stroke="black" points="964.99,-84.8 851.01,-84.8 851.01,-48.8 964.99,-48.8 964.99,-84.8"/>
<text text-anchor="middle" x="908" y="-62.6" font-family="Times,serif" font-size="14.00">MenuComponent</text>
</g>
<!-- MenuComponent&#45;&gt;AppModule -->
<g id="edge6" class="edge">
<title>MenuComponent&#45;&gt;AppModule</title>
<path fill="none" stroke="black" d="M908,-85.04C908,-100.37 908,-119.8 908,-119.8 908,-119.8 1078.24,-119.8 1078.24,-119.8"/>
<polygon fill="black" stroke="black" points="1078.24,-123.3 1088.24,-119.8 1078.24,-116.3 1078.24,-123.3"/>
</g>
<!-- MessagesComponent -->
<g id="node7" class="node">
<title>MessagesComponent</title>
<polygon fill="#ffffb3" stroke="black" points="832.75,-84.8 697.25,-84.8 697.25,-48.8 832.75,-48.8 832.75,-84.8"/>
<text text-anchor="middle" x="765" y="-62.6" font-family="Times,serif" font-size="14.00">MessagesComponent</text>
</g>
<!-- MessagesComponent&#45;&gt;AppModule -->
<g id="edge7" class="edge">
<title>MessagesComponent&#45;&gt;AppModule</title>
<path fill="none" stroke="black" d="M765,-84.83C765,-101.86 765,-124.8 765,-124.8 765,-124.8 1078.13,-124.8 1078.13,-124.8"/>
<polygon fill="black" stroke="black" points="1078.13,-128.3 1088.13,-124.8 1078.13,-121.3 1078.13,-128.3"/>
</g>
<!-- NgbCaruselComponent -->
<g id="node8" class="node">
<title>NgbCaruselComponent</title>
<polygon fill="#ffffb3" stroke="black" points="679.2,-84.8 530.8,-84.8 530.8,-48.8 679.2,-48.8 679.2,-84.8"/>
<text text-anchor="middle" x="605" y="-62.6" font-family="Times,serif" font-size="14.00">NgbCaruselComponent</text>
</g>
<!-- NgbCaruselComponent&#45;&gt;AppModule -->
<g id="edge8" class="edge">
<title>NgbCaruselComponent&#45;&gt;AppModule</title>
<path fill="none" stroke="black" d="M605,-85.02C605,-103.63 605,-129.8 605,-129.8 605,-129.8 1077.92,-129.8 1077.92,-129.8"/>
<polygon fill="black" stroke="black" points="1077.92,-133.3 1087.92,-129.8 1077.92,-126.3 1077.92,-133.3"/>
</g>
<!-- ProjectsGridComponent -->
<g id="node9" class="node">
<title>ProjectsGridComponent</title>
<polygon fill="#ffffb3" stroke="black" points="513.09,-84.8 360.91,-84.8 360.91,-48.8 513.09,-48.8 513.09,-84.8"/>
<text text-anchor="middle" x="437" y="-62.6" font-family="Times,serif" font-size="14.00">ProjectsGridComponent</text>
</g>
<!-- ProjectsGridComponent&#45;&gt;AppModule -->
<g id="edge9" class="edge">
<title>ProjectsGridComponent&#45;&gt;AppModule</title>
<path fill="none" stroke="black" d="M437,-85.02C437,-105.17 437,-134.8 437,-134.8 437,-134.8 1078.21,-134.8 1078.21,-134.8"/>
<polygon fill="black" stroke="black" points="1078.21,-138.3 1088.21,-134.8 1078.21,-131.3 1078.21,-138.3"/>
</g>
<!-- ThemeSwitchComponent -->
<g id="node10" class="node">
<title>ThemeSwitchComponent</title>
<polygon fill="#ffffb3" stroke="black" points="342.59,-84.8 183.41,-84.8 183.41,-48.8 342.59,-48.8 342.59,-84.8"/>
<text text-anchor="middle" x="263" y="-62.6" font-family="Times,serif" font-size="14.00">ThemeSwitchComponent</text>
</g>
<!-- ThemeSwitchComponent&#45;&gt;AppModule -->
<g id="edge10" class="edge">
<title>ThemeSwitchComponent&#45;&gt;AppModule</title>
<path fill="none" stroke="black" d="M263,-84.84C263,-106.46 263,-139.8 263,-139.8 263,-139.8 1078.18,-139.8 1078.18,-139.8"/>
<polygon fill="black" stroke="black" points="1078.18,-143.3 1088.18,-139.8 1078.18,-136.3 1078.18,-143.3"/>
</g>
<!-- UserLoginComponent -->
<g id="node11" class="node">
<title>UserLoginComponent</title>
<polygon fill="#ffffb3" stroke="black" points="165.7,-84.8 24.3,-84.8 24.3,-48.8 165.7,-48.8 165.7,-84.8"/>
<text text-anchor="middle" x="95" y="-62.6" font-family="Times,serif" font-size="14.00">UserLoginComponent</text>
</g>
<!-- UserLoginComponent&#45;&gt;AppModule -->
<g id="edge11" class="edge">
<title>UserLoginComponent&#45;&gt;AppModule</title>
<path fill="none" stroke="black" d="M95,-84.89C95,-107.93 95,-144.8 95,-144.8 95,-144.8 1078.14,-144.8 1078.14,-144.8"/>
<polygon fill="black" stroke="black" points="1078.14,-148.3 1088.14,-144.8 1078.14,-141.3 1078.14,-148.3"/>
</g>
<!-- AppComponent  -->
<g id="node14" class="node">
<title>AppComponent </title>
<polygon fill="#80b1d3" stroke="black" points="1184.44,-214.8 1075.56,-214.8 1075.56,-178.8 1184.44,-178.8 1184.44,-214.8"/>
<text text-anchor="middle" x="1130" y="-192.6" font-family="Times,serif" font-size="14.00">AppComponent </text>
</g>
<!-- AppModule&#45;&gt;AppComponent  -->
<g id="edge13" class="edge">
<title>AppModule&#45;&gt;AppComponent </title>
<path fill="none" stroke="black" stroke-dasharray="1,5" d="M1130,-149.91C1130,-149.91 1130,-168.79 1130,-168.79"/>
<polygon fill="black" stroke="black" points="1126.5,-168.79 1130,-178.79 1133.5,-168.79 1126.5,-168.79"/>
</g>
<!-- AppRoutingModule -->
<g id="node13" class="node">
<title>AppRoutingModule</title>
<polygon fill="#8dd3c7" stroke="black" points="2252.27,-84.8 2249.27,-88.8 2228.27,-88.8 2225.27,-84.8 2123.73,-84.8 2123.73,-48.8 2252.27,-48.8 2252.27,-84.8"/>
<text text-anchor="middle" x="2188" y="-62.6" font-family="Times,serif" font-size="14.00">AppRoutingModule</text>
</g>
<!-- AppRoutingModule&#45;&gt;AppModule -->
<g id="edge12" class="edge">
<title>AppRoutingModule&#45;&gt;AppModule</title>
<path fill="none" stroke="black" d="M2188,-84.89C2188,-107.93 2188,-144.8 2188,-144.8 2188,-144.8 1181.8,-144.8 1181.8,-144.8"/>
<polygon fill="black" stroke="black" points="1181.8,-141.3 1171.8,-144.8 1181.8,-148.3 1181.8,-141.3"/>
</g>
<!-- StyleManagerService -->
<g id="node15" class="node">
<title>StyleManagerService</title>
<ellipse fill="#fdb462" stroke="black" cx="2006" cy="-66.8" rx="94.32" ry="18"/>
<text text-anchor="middle" x="2006" y="-62.6" font-family="Times,serif" font-size="14.00">StyleManagerService</text>
</g>
<!-- StyleManagerService&#45;&gt;AppModule -->
<g id="edge14" class="edge">
<title>StyleManagerService&#45;&gt;AppModule</title>
<path fill="none" stroke="black" d="M2006,-84.84C2006,-106.46 2006,-139.8 2006,-139.8 2006,-139.8 1181.66,-139.8 1181.66,-139.8"/>
<polygon fill="black" stroke="black" points="1181.66,-136.3 1171.66,-139.8 1181.66,-143.3 1181.66,-136.3"/>
</g>
<!-- ThemeService -->
<g id="node16" class="node">
<title>ThemeService</title>
<ellipse fill="#fdb462" stroke="black" cx="1827" cy="-66.8" rx="66.61" ry="18"/>
<text text-anchor="middle" x="1827" y="-62.6" font-family="Times,serif" font-size="14.00">ThemeService</text>
</g>
<!-- ThemeService&#45;&gt;AppModule -->
<g id="edge15" class="edge">
<title>ThemeService&#45;&gt;AppModule</title>
<path fill="none" stroke="black" d="M1827,-85.02C1827,-105.17 1827,-134.8 1827,-134.8 1827,-134.8 1181.77,-134.8 1181.77,-134.8"/>
<polygon fill="black" stroke="black" points="1181.77,-131.3 1171.77,-134.8 1181.77,-138.3 1181.77,-131.3"/>
</g>
</g>
</svg>
